<svg width="128" height="128" viewBox="0 0 128 128" fill="none" xmlns="http://www.w3.org/2000/svg">
<path d="M27.255 80.719C27.255 88.049 21.277 94.036 13.946 94.036C6.616 94.036 0.630005 88.049 0.630005 80.719C0.630005 73.389 6.617 67.402 13.947 67.402H27.256L27.255 80.719ZM33.964 80.719C33.964 73.389 39.951 67.402 47.281 67.402C54.611 67.402 60.598 73.388 60.598 80.719V114.054C60.598 121.384 54.612 127.371 47.281 127.371C39.951 127.371 33.964 121.384 33.964 114.054V80.719Z" fill="#DE1C59"/>
<path d="M47.281 27.255C39.951 27.255 33.964 21.277 33.964 13.946C33.964 6.616 39.951 0.629999 47.281 0.629999C54.611 0.629999 60.598 6.617 60.598 13.947V27.256L47.281 27.255ZM47.281 33.964C54.611 33.964 60.598 39.951 60.598 47.281C60.598 54.611 54.612 60.598 47.281 60.598H13.946C6.616 60.598 0.630005 54.612 0.630005 47.281C0.630005 39.951 6.617 33.964 13.947 33.964H47.281Z" fill="#35C5F0"/>
<path d="M100.745 47.281C100.745 39.951 106.723 33.964 114.054 33.964C121.384 33.964 127.371 39.951 127.371 47.281C127.371 54.611 121.384 60.598 114.054 60.598H100.745V47.281ZM94.036 47.281C94.036 54.611 88.049 60.598 80.719 60.598C73.389 60.598 67.402 54.612 67.402 47.281V13.946C67.402 6.616 73.388 0.629999 80.719 0.629999C88.049 0.629999 94.036 6.617 94.036 13.947V47.281Z" fill="#2EB57D"/>
<path d="M80.719 100.745C88.049 100.745 94.036 106.723 94.036 114.054C94.036 121.384 88.049 127.371 80.719 127.371C73.389 127.371 67.402 121.384 67.402 114.054V100.745H80.719ZM80.719 94.036C73.389 94.036 67.402 88.049 67.402 80.719C67.402 73.389 73.388 67.402 80.719 67.402H114.054C121.384 67.402 127.371 73.388 127.371 80.719C127.371 88.049 121.384 94.036 114.054 94.036H80.719Z" fill="#EBB02E"/>
</svg>
